<?xml version="1.0" encoding="UTF-8" standalone="no"?>
<svg width="233px" height="221px" viewBox="0 0 233 221" version="1.1" xmlns="http://www.w3.org/2000/svg" xmlns:xlink="http://www.w3.org/1999/xlink" xmlns:sketch="http://www.bohemiancoding.com/sketch/ns">
    <!-- Generator: Sketch 3.3.1 (12002) - http://www.bohemiancoding.com/sketch -->
    <title>bulbman@svg</title>
    <desc>Created with Sketch.</desc>
    <defs></defs>
    <g id="Page-1" stroke="none" stroke-width="1" fill="none" fill-rule="evenodd" sketch:type="MSPage">
        <g id="004-copy" sketch:type="MSLayerGroup" transform="translate(-1007.000000, -252.000000)" fill="#000000" opacity="0.0594682836">
            <g id="Group" transform="translate(958.000000, 61.000000)" sketch:type="MSShapeGroup">
                <g id="web-3" transform="translate(1.000000, 0.000000)">
                    <g id="content-2">
                        <g id="text2" transform="translate(38.000000, 191.000000)">
                            <g id="bulbman" transform="translate(10.000000, 0.000000)">
                                <g>
                                    <path d="M27,40.9873939 L41.9873939,26 L61,45.0126061 L46.0120916,60 L27,40.9873939 L27,40.9873939 Z M105,0 L126,0 L126,31 L105,31 L105,0 Z M0,105 L32,105 L32,126 L0,126 L0,105 Z M148.250257,170.194402 L148.250257,221 L84.7497429,221 L84.7497429,170.194402 C65.8058068,159.209227 53,138.823876 53,115.374743 C53,80.3601092 81.4161613,52 116.5,52 C151.583839,52 180,80.3601092 180,115.374743 C180,138.823876 167.194193,159.262078 148.250257,170.194402 L148.250257,170.194402 Z M201,105 L233,105 L233,126 L201,126 L201,105 Z M171,45.0126061 L190.012379,26 L205,40.9873939 L185.987621,60 L171,45.0126061 Z M84,87 L92,87 L92,117 L84,117 L84,87 Z M116,86 L124,86 L124,116 L116,116 L116,86 Z M104.5,136.167921 C114.717268,136.167921 123,131.290099 123,136.167921 C123,141.045744 114.717268,145 104.5,145 C94.2827321,145 86,141.045744 86,136.167921 C86,131.290099 94.2827321,136.167921 104.5,136.167921 Z"></path>
                                </g>
                            </g>
                        </g>
                    </g>
                </g>
            </g>
        </g>
    </g>
</svg>